<svg
					width="2882"
					height="260"
					viewBox="0 0 2882 260"
					fill="none"
					xmlns="http://www.w3.org/2000/svg"
				>
					<path
						d="M0 256.932V3.06783H28.7722V229.322H167.262V256.932H0Z"
						fill="black"></path>
					<path
						d="M284.662 260C263.69 260 245.02 255.398 228.652 246.195C212.54 236.736 199.88 223.569 190.673 206.696C181.466 189.823 176.862 170.138 176.862 147.64V3.06783H205.634V148.407C205.634 168.092 209.343 184.071 216.76 196.342C224.432 208.614 234.279 217.689 246.299 223.569C258.575 229.194 271.363 232.006 284.662 232.006C298.217 232.006 311.004 229.194 323.025 223.569C335.045 217.689 344.892 208.614 352.564 196.342C360.237 184.071 364.073 168.092 364.073 148.407V3.06783H392.845V147.64C392.845 169.882 388.242 189.44 379.035 206.313C369.828 223.186 357.04 236.352 340.672 245.811C324.559 255.27 305.889 260 284.662 260Z"
						fill="black"></path>
					<path
						d="M440.409 256.932V3.06783H473.785L564.705 123.481L654.091 3.06783H687.467V256.932H658.694V46.7847L564.705 167.581L469.182 46.7847V256.932H440.409Z"
						fill="black"></path>
					<path
						d="M737.977 256.932V3.06783H766.749V256.932H737.977Z"
						fill="black"></path>
					<path
						d="M817.505 256.932V3.06783H846.277V135.369L987.453 3.06783H1028.12L919.934 105.074L1034.26 256.932H998.194L898.834 124.631L846.277 173.717V256.932H817.505Z"
						fill="black"></path>
					<path
						d="M1051.76 256.932V3.06783H1080.53V135.369L1221.71 3.06783H1262.37L1154.19 105.074L1268.51 256.932H1232.45L1133.09 124.631L1080.53 173.717V256.932H1051.76Z"
						fill="black"></path>
					<path
						d="M1386.06 260C1366.88 260 1349.36 256.677 1333.5 250.03C1317.65 243.383 1303.96 234.051 1292.46 222.035C1281.2 210.02 1272.51 196.214 1266.37 180.619C1260.23 164.769 1257.16 147.896 1257.16 130C1257.16 111.849 1260.23 94.9754 1266.37 79.3805C1272.51 63.7856 1281.2 49.9803 1292.46 37.9646C1303.96 25.9489 1317.65 16.6175 1333.5 9.97049C1349.36 3.3235 1366.88 0 1386.06 0C1405.24 0 1422.76 3.3235 1438.62 9.97049C1454.48 16.6175 1468.03 25.9489 1479.28 37.9646C1490.79 49.9803 1499.62 63.7856 1505.75 79.3805C1511.89 94.9754 1514.96 111.849 1514.96 130C1514.96 147.896 1511.89 164.769 1505.75 180.619C1499.62 196.214 1490.79 210.02 1479.28 222.035C1468.03 234.051 1454.48 243.383 1438.62 250.03C1422.76 256.677 1405.24 260 1386.06 260ZM1386.06 232.006C1406.78 232.006 1424.55 227.532 1439.39 218.584C1454.48 209.381 1465.98 197.109 1473.91 181.77C1482.1 166.175 1486.19 148.918 1486.19 130C1486.19 110.826 1482.1 93.5693 1473.91 78.2301C1465.98 62.8909 1454.48 50.7473 1439.39 41.7994C1424.55 32.5959 1406.78 27.9941 1386.06 27.9941C1365.6 27.9941 1347.83 32.5959 1332.74 41.7994C1317.65 50.7473 1306.01 62.8909 1297.83 78.2301C1289.9 93.5693 1285.93 110.826 1285.93 130C1285.93 148.918 1289.9 166.175 1297.83 181.77C1306.01 197.109 1317.65 209.381 1332.74 218.584C1347.83 227.532 1365.6 232.006 1386.06 232.006Z"
						fill="black"></path>
					<path d="M1535 256.932V217.817H1572.21V256.932H1535Z" fill="black"
					></path>
					<path
						d="M1703.08 260C1678.01 260 1657.68 256.677 1642.08 250.03C1626.48 243.127 1614.71 233.668 1606.79 221.652C1599.11 209.636 1594.64 196.087 1593.36 181.003H1623.28C1624.05 193.274 1628.14 203.245 1635.56 210.914C1642.98 218.328 1652.69 223.825 1664.71 227.404C1676.99 230.983 1690.42 232.773 1705 232.773C1726.48 232.773 1743.49 229.066 1756.02 221.652C1768.55 213.982 1774.82 202.734 1774.82 187.906C1774.82 178.958 1771.62 171.799 1765.23 166.431C1759.09 160.806 1750.78 156.205 1740.29 152.625C1730.06 149.046 1718.81 145.851 1706.53 143.038C1694.25 139.971 1681.85 136.775 1669.32 133.451C1657.04 130.128 1645.66 125.91 1635.17 120.796C1624.94 115.683 1616.63 109.164 1610.24 101.239C1604.1 93.058 1601.03 82.704 1601.03 70.177C1601.03 49.469 1608.96 32.5959 1624.82 19.5575C1640.93 6.51918 1664.84 0 1696.56 0C1719.06 0 1737.6 3.45133 1752.18 10.354C1766.76 17.001 1777.63 25.821 1784.79 36.8142C1792.21 47.8073 1796.3 59.6952 1797.07 72.4779H1767.53C1765.99 59.6952 1759.6 48.9577 1748.35 40.2655C1737.09 31.3176 1719.83 26.8437 1696.56 26.8437C1682.23 26.8437 1670.6 28.2497 1661.65 31.0619C1652.69 33.8741 1645.79 37.5811 1640.93 42.1829C1636.33 46.529 1633.13 51.1308 1631.34 55.9882C1629.8 60.8456 1629.04 65.4474 1629.04 69.7935C1629.04 78.2301 1632.11 85.1327 1638.24 90.5015C1644.64 95.6145 1652.95 99.9607 1663.18 103.54C1673.67 106.863 1685.17 109.931 1697.71 112.743C1710.24 115.556 1722.64 118.751 1734.92 122.33C1747.45 125.654 1758.83 130 1769.06 135.369C1779.55 140.482 1787.86 147.129 1794 155.31C1800.39 163.491 1803.59 173.972 1803.59 186.755C1803.59 210.275 1794.64 228.427 1776.73 241.209C1758.83 253.736 1734.28 260 1703.08 260Z"
						fill="black"></path>
					<path
						d="M1899.59 256.932V30.295H1810.97V3.06783H2016.98V30.295H1928.36V256.932H1899.59Z"
						fill="black"></path>
					<path
						d="M2146.81 260C2125.84 260 2107.17 255.398 2090.8 246.195C2074.69 236.736 2062.03 223.569 2052.82 206.696C2043.61 189.823 2039.01 170.138 2039.01 147.64V3.06783H2067.78V148.407C2067.78 168.092 2071.49 184.071 2078.91 196.342C2086.58 208.614 2096.42 217.689 2108.44 223.569C2120.72 229.194 2133.51 232.006 2146.81 232.006C2160.36 232.006 2173.15 229.194 2185.17 223.569C2197.19 217.689 2207.04 208.614 2214.71 196.342C2222.38 184.071 2226.22 168.092 2226.22 148.407V3.06783H2254.99V147.64C2254.99 169.882 2250.39 189.44 2241.18 206.313C2231.97 223.186 2219.19 236.352 2202.82 245.811C2186.7 255.27 2168.03 260 2146.81 260Z"
						fill="black"></path>
					<path
						d="M2302.55 256.932V3.06783H2409.59C2424.68 3.06783 2439.13 6.00785 2452.94 11.8879C2467 17.5123 2479.54 25.821 2490.53 36.8142C2501.53 47.8073 2510.23 61.1013 2516.62 76.6962C2523.01 92.2911 2526.21 110.059 2526.21 130C2526.21 149.941 2523.01 167.709 2516.62 183.304C2510.23 198.899 2501.53 212.193 2490.53 223.186C2479.54 234.179 2467 242.616 2452.94 248.496C2439.13 254.12 2424.68 256.932 2409.59 256.932H2302.55ZM2331.33 229.705H2408.44C2426.6 229.705 2442.32 225.103 2455.62 215.9C2468.92 206.696 2479.15 194.553 2486.31 179.469C2493.73 164.385 2497.44 147.896 2497.44 130C2497.44 111.849 2493.73 95.2311 2486.31 80.1475C2479.15 65.0639 2468.92 53.0482 2455.62 44.1003C2442.32 34.8968 2426.6 30.295 2408.44 30.295H2331.33V229.705Z"
						fill="black"></path>
					<path
						d="M2560.79 256.932V3.06783H2589.56V256.932H2560.79Z"
						fill="black"></path>
					<path
						d="M2753.1 260C2733.92 260 2716.4 256.677 2700.54 250.03C2684.69 243.383 2671 234.051 2659.5 222.035C2648.24 210.02 2639.55 196.214 2633.41 180.619C2627.27 164.769 2624.2 147.896 2624.2 130C2624.2 111.849 2627.27 94.9754 2633.41 79.3805C2639.55 63.7856 2648.24 49.9803 2659.5 37.9646C2671 25.9489 2684.69 16.6175 2700.54 9.97049C2716.4 3.3235 2733.92 0 2753.1 0C2772.28 0 2789.8 3.3235 2805.66 9.97049C2821.51 16.6175 2835.07 25.9489 2846.32 37.9646C2857.83 49.9803 2866.65 63.7856 2872.79 79.3805C2878.93 94.9754 2882 111.849 2882 130C2882 147.896 2878.93 164.769 2872.79 180.619C2866.65 196.214 2857.83 210.02 2846.32 222.035C2835.07 234.051 2821.51 243.383 2805.66 250.03C2789.8 256.677 2772.28 260 2753.1 260ZM2753.1 232.006C2773.82 232.006 2791.59 227.532 2806.42 218.584C2821.51 209.381 2833.02 197.109 2840.95 181.77C2849.14 166.175 2853.23 148.918 2853.23 130C2853.23 110.826 2849.14 93.5693 2840.95 78.2301C2833.02 62.8909 2821.51 50.7473 2806.42 41.7994C2791.59 32.5959 2773.82 27.9941 2753.1 27.9941C2732.64 27.9941 2714.87 32.5959 2699.78 41.7994C2684.69 50.7473 2673.05 62.8909 2664.87 78.2301C2656.94 93.5693 2652.97 110.826 2652.97 130C2652.97 148.918 2656.94 166.175 2664.87 181.77C2673.05 197.109 2684.69 209.381 2699.78 218.584C2714.87 227.532 2732.64 232.006 2753.1 232.006Z"
						fill="black"></path>
				</svg>